<svg xmlns="http://www.w3.org/2000/svg" width="512" height="512" viewBox="0 0 512 512"><defs><linearGradient id="cc" x1="0" y1="0" x2="1" y2="0"><stop offset="18%" stop-color="#FF4D2E"/><stop offset="52%" stop-color="#b65a9e"/><stop offset="86%" stop-color="#3a86ff"/></linearGradient></defs><rect width="512" height="512" rx="112" fill="#F5F0E8"/><g transform="translate(70,135.1934673366834) scale(0.46733668341708545)"><path fill-rule="evenodd" d="M 220.500 1.988 C 107.740 13.991, 20.990 99.878, 2.822 217.500 C -0.346 238.008, -0.329 277.323, 2.858 297.893 C 16.588 386.534, 68.090 458.130, 144.251 494.455 C 176.974 510.061, 205.966 516.426, 244.500 516.461 C 295.333 516.509, 337.378 502.944, 377 473.713 C 388.507 465.223, 413.323 440.577, 421.739 429.279 L 427.863 421.058 432.798 427.279 C 473.587 478.702, 529.412 509.903, 591.424 515.937 C 664.654 523.063, 734.010 493.490, 781.244 435 C 786.396 428.621, 795.011 416.191, 794.976 415.187 C 794.963 414.809, 779.392 402.575, 760.373 388 C 741.354 373.425, 722.577 358.925, 718.647 355.777 C 714.716 352.629, 711.146 350.041, 710.713 350.027 C 710.280 350.012, 704.880 355.068, 698.713 361.262 C 682.113 377.934, 665.318 388.010, 645.115 393.416 C 572.199 412.930, 502.915 365.337, 486.797 284.665 C 483.645 268.885, 483.671 242.128, 486.853 227.227 C 491.479 205.567, 498.209 189.061, 509.282 172.216 C 532.993 136.143, 570.503 115.740, 613 115.798 C 647.290 115.845, 676.632 128.354, 700.482 153.094 L 708.883 161.809 728.691 145.713 C 739.586 136.861, 758.154 121.716, 769.954 112.059 C 781.754 102.401, 792.030 94.028, 792.789 93.451 C 795.757 91.197, 775.302 67.253, 758.084 52.826 C 726.701 26.530, 689.532 9.979, 646.964 3.345 C 630.936 0.848, 593.186 0.838, 577 3.328 C 504.330 14.504, 444.533 56.610, 407.756 122.500 C 385.975 161.524, 374.016 208.925, 374.003 256.289 C 373.984 327.262, 335.284 380.164, 272.722 394.736 C 257.771 398.219, 233.798 398.468, 219 395.295 C 168.921 384.558, 131.147 345.782, 117.400 291 C 114.657 280.067, 114.514 278.415, 114.507 257.500 C 114.502 240.031, 114.873 233.749, 116.312 227 C 130.555 160.200, 181.812 115.723, 244.500 115.766 C 278.139 115.789, 306.689 127.340, 331.197 150.843 C 339.095 158.416, 340.073 159.062, 341.803 157.843 C 342.851 157.104, 360.713 139.749, 381.496 119.276 L 419.284 82.052 415.428 77.276 C 408.818 69.090, 391.865 52.667, 383.467 46.316 C 353.660 23.773, 319.037 9.376, 280.500 3.500 C 267.849 1.571, 232.732 0.686, 220.500 1.988" fill="url(#cc)"/></g></svg>