<svg xmlns="http://www.w3.org/2000/svg" width="1076" height="290" viewBox="0 0 1076 290" version="1.1">
	<path d="M 1027.648 1.750 C 1027.380 2.712, 1026.856 6.610, 1026.483 10.412 C 1024.179 33.928, 1017.574 41.194, 995.500 44.493 C 990 45.316, 984.263 45.991, 982.750 45.994 C 981.237 45.997, 980 46.369, 980 46.820 C 980 47.271, 984.754 48.193, 990.566 48.868 C 1016.590 51.893, 1022.257 56.760, 1026.148 79.429 C 1027.180 85.440, 1028.215 90.548, 1028.448 90.781 C 1028.681 91.014, 1029.170 89.471, 1029.536 87.352 C 1034.988 55.786, 1038.993 51.916, 1069.746 48.499 L 1075.992 47.805 1076.250 167.652 L 1076.508 287.500 1076.569 161.500 C 1076.603 92.200, 1076.465 37.862, 1076.263 40.750 C 1075.832 46.911, 1076.496 46.741, 1061.591 44.495 C 1051.012 42.900, 1042.741 39.741, 1039.034 35.878 C 1034.237 30.879, 1030.122 16.647, 1030.035 4.750 C 1030.001 0.078, 1028.602 -1.680, 1027.648 1.750 M 1 162.583 C 1 262.606, 1.254 288.082, 2.250 287.750 C 4.313 287.062, 4.566 37, 2.504 37 C 1.173 37, 1 51.477, 1 162.583 M 493.500 69.146 C 479.829 74.203, 476.553 90.254, 487.272 99.666 C 494.668 106.160, 507.638 106.032, 514.986 99.394 C 524.008 91.242, 522.285 75.819, 511.743 70.367 C 507.838 68.348, 497.524 67.657, 493.500 69.146 M 418.378 84.437 C 411.886 87.263, 412 86.474, 412 128.592 C 412 158.438, 412.335 168.658, 413.539 175.563 C 416.134 190.444, 420.857 198.388, 430.176 203.551 C 437.399 207.552, 452.853 207.914, 459.722 204.244 C 472.880 197.213, 477.679 186.219, 473.562 172.539 C 472.025 167.431, 468.592 163, 466.172 163 C 465.359 163, 462.314 165.250, 459.406 168 C 453.701 173.396, 451.097 174.097, 448.056 171.056 C 445.441 168.441, 444.577 163.519, 444.535 151 L 444.500 140.500 455.708 140.837 C 466.490 141.162, 467.009 141.082, 469.369 138.722 C 473.556 134.535, 474.217 119.032, 470.454 113.289 C 468.941 110.980, 468.755 110.958, 456.808 111.633 L 444.695 112.317 445.399 101.190 C 446.200 88.530, 445.624 86.577, 440.452 84.415 C 436.141 82.614, 422.535 82.628, 418.378 84.437 M 117.286 86.392 C 106.362 89.957, 98.144 97.620, 92.539 109.466 C 87.826 119.427, 86.006 127.641, 85.316 142.061 C 83.387 182.374, 99.409 207.453, 127 207.310 C 148.597 207.197, 164.346 189.599, 158.527 172.081 C 154.632 160.355, 149.137 158.028, 143.576 165.750 C 137.453 174.255, 130.021 176.413, 124.079 171.413 C 113.908 162.854, 115.668 122.302, 126.375 118.537 C 131.293 116.807, 134.106 119.396, 137.217 128.515 C 140.181 137.202, 141.772 139, 146.495 139 C 157.070 139, 164.049 116.082, 157.610 102.500 C 154.640 96.236, 148.981 90.758, 142.500 87.873 C 136.284 85.106, 123.524 84.357, 117.286 86.392 M 937.637 86.489 C 932.263 88.371, 928.241 92.471, 924.875 99.500 L 922.002 105.500 922.001 98.321 C 922 93.182, 921.561 90.704, 920.455 89.598 C 915.155 84.298, 893.956 85.523, 889.072 91.412 C 887.860 92.873, 887.823 95.054, 888.827 105.817 C 890.492 123.674, 890.292 171.560, 888.490 186.500 C 886.640 201.829, 886.635 201.635, 889 204 C 890.815 205.815, 892.333 206, 905.435 206 C 927.030 206, 927.221 205.823, 924.410 188.365 C 922.193 174.595, 921.881 145.910, 923.864 138.192 C 926.437 128.177, 932.775 124.370, 940 128.500 C 949.938 134.181, 955.746 124.929, 954.814 104.899 C 954.083 89.182, 948.137 82.810, 937.637 86.489 M 990.384 86.350 C 966.905 92.330, 952.990 122.251, 956.904 158.339 C 959.513 182.393, 968.054 197.085, 983.580 204.224 C 990.235 207.285, 1005.976 207.473, 1013.472 204.583 C 1027.379 199.219, 1035.617 184.394, 1031.529 172.087 C 1027.724 160.632, 1022.133 158.039, 1017.079 165.385 C 1012.114 172.602, 1008.597 175, 1002.979 175 C 996.836 175, 993.469 172.304, 991.541 165.841 C 989.868 160.235, 990.050 160, 996.061 160 C 1002.312 160, 1012.471 156.786, 1018.188 152.999 C 1034.405 142.257, 1037.932 114.351, 1025.202 97.500 C 1017.907 87.843, 1003.117 83.107, 990.384 86.350 M 216.459 87.880 C 211.655 90.062, 207.562 94.651, 204.309 101.500 L 201.935 106.500 202.357 101 C 202.944 93.330, 202.039 90.800, 197.971 88.752 C 193.548 86.524, 182.297 86.426, 175.136 88.552 C 167.892 90.704, 167.494 91.903, 168.878 107.435 C 170.493 125.572, 170.280 168.667, 168.491 185.500 C 166.647 202.853, 166.613 201.613, 169 204 C 171.943 206.943, 200.485 207.047, 204.090 204.128 L 206.402 202.256 204.683 187.878 C 202.729 171.531, 202.450 146.664, 204.133 138.816 C 204.933 135.084, 206.256 132.544, 208.641 130.159 C 212.351 126.449, 214.586 126.308, 222.456 129.286 C 227.784 131.303, 230.038 130.279, 232.929 124.529 C 235.058 120.294, 235.361 118.326, 235.385 108.599 C 235.416 95.699, 233.969 91.171, 228.810 88.026 C 224.732 85.539, 221.691 85.503, 216.459 87.880 M 646.407 87.002 C 622.694 91.870, 609.858 115.872, 611.270 152.703 C 612.319 180.092, 620.865 196.891, 637.782 204.820 C 646.114 208.725, 660.854 208.740, 669.148 204.852 C 685.913 196.992, 691.620 180.128, 682.381 165.750 C 678.741 160.085, 675.192 160.467, 671.018 166.972 C 662.537 180.189, 647.644 178.905, 645.348 164.760 L 644.788 161.308 651.684 160.730 C 673.748 158.880, 687 144.569, 687 122.592 C 687 109.354, 681.811 98.381, 672.657 92.264 C 665.494 87.476, 654.667 85.306, 646.407 87.002 M 750.730 88.362 C 739.611 93.046, 731.967 101.371, 726.991 114.214 C 722.731 125.207, 721.584 132.846, 721.690 149.500 C 721.873 178.323, 729.953 195.931, 746.798 204.219 C 752.940 207.242, 754.215 207.497, 762.982 207.468 C 774.275 207.430, 779.968 205.341, 786.867 198.702 C 795.133 190.749, 797.877 180.852, 794.334 171.770 C 789.716 159.930, 786.033 159.060, 778.200 167.959 C 764.897 183.071, 753.587 173.174, 753.678 146.500 C 753.735 129.566, 758.067 119, 764.952 119 C 768.883 119, 771.619 121.796, 772.973 127.197 C 775.761 138.320, 779.375 141.622, 785.543 138.681 C 792.529 135.349, 797.981 122.154, 796.513 112.131 C 794.183 96.222, 783.067 86.956, 765.500 86.278 C 757.734 85.979, 755.709 86.264, 750.730 88.362 M 267.359 88.785 C 248.179 95.627, 237 117.431, 237 148 C 237 173.282, 244.664 192.515, 258.299 201.455 C 276.966 213.692, 303.351 207.983, 312.443 189.739 C 315.507 183.589, 315.669 178.782, 313.043 171.871 C 308.757 160.591, 304.293 159.281, 298.099 167.485 C 292.025 175.530, 284.425 178.439, 278.192 175.103 C 275.555 173.691, 272 167.053, 272 163.540 C 272 161.249, 272.387 161, 275.951 161 C 291.614 161, 305.713 152.556, 311.655 139.617 C 315.837 130.512, 315.818 115.354, 311.615 106.253 C 308.293 99.062, 302.096 92.830, 295.176 89.722 C 288.547 86.746, 274.411 86.270, 267.359 88.785 M 349 88.358 C 339.031 91.345, 331.939 96.527, 329.347 102.718 C 325.139 112.770, 332.127 131, 340.189 131 C 342.413 131, 343.742 129.972, 346.523 126.101 C 350.978 119.899, 353.895 118, 358.965 118 C 365.617 118, 368.982 123.451, 368.994 134.250 L 369 139 362.049 139 C 339.890 139, 325.739 149.058, 321.982 167.479 C 315.887 197.370, 345.234 219.431, 364.636 199.543 L 369.771 194.279 370.274 198.742 C 371.049 205.610, 372.408 206.394, 384.261 206.806 C 395.188 207.187, 401.447 205.875, 403.364 202.802 C 404.123 201.587, 404.045 199.171, 403.089 194.302 C 402.245 189.998, 401.496 174.828, 401.049 153 C 400.404 121.462, 400.158 117.942, 398.188 112 C 394.906 102.101, 389.921 96.255, 380.792 91.601 C 373.701 87.986, 372.430 87.677, 363.322 87.356 C 357.005 87.133, 351.894 87.491, 349 88.358 M 831.005 88.609 C 817.590 93.479, 807.729 105.786, 802.764 123.856 C 799.861 134.420, 799.625 162.187, 802.354 172 C 806.702 187.632, 814.831 198.689, 825.730 203.796 C 833.551 207.461, 847.850 207.697, 855.279 204.283 C 871.343 196.901, 881.326 177.658, 882.700 151.422 C 884.273 121.386, 874.979 99.008, 857.348 90.382 C 850.200 86.885, 838.014 86.065, 831.005 88.609 M 542 90.577 C 541.175 90.737, 538.826 91.140, 536.779 91.473 C 531.445 92.343, 527 96.377, 527 100.349 C 527 102.093, 528.597 111.840, 530.550 122.010 C 532.502 132.179, 535.388 147.250, 536.962 155.500 C 541.622 179.927, 545.856 198.131, 547.437 200.544 C 550.186 204.739, 556.541 206.255, 569.720 205.858 C 582.368 205.477, 585.314 204.503, 588.493 199.652 C 591.705 194.749, 602.912 144.847, 608.015 112.729 C 610.042 99.966, 610.084 98.778, 608.592 96.500 C 605.249 91.397, 595.779 89.074, 586.326 91.036 C 576.540 93.068, 576.414 93.371, 575.687 116.548 C 574.923 140.933, 570.977 172.463, 568.960 170.308 C 567.819 169.089, 564.290 141.939, 562.487 120.500 C 560.355 95.164, 560.285 94.868, 556 92.860 C 552.562 91.249, 544.952 90.008, 542 90.577 M 488.370 113.440 C 486.649 114.190, 484.849 115.409, 484.370 116.151 C 483.892 116.893, 483.496 130.325, 483.491 146 C 483.485 163.410, 482.930 179.841, 482.064 188.226 C 480.132 206.935, 479.160 206, 500.544 206 C 514.920 206, 517.043 205.786, 519.091 204.127 L 521.404 202.255 520 187.377 C 519.222 179.121, 518.566 160.262, 518.528 145 C 518.490 129.875, 518.076 116.892, 517.607 116.148 C 515.084 112.142, 495.517 110.330, 488.370 113.440 M 993.678 116.971 C 990.827 120.359, 989 127.605, 989 135.524 L 989 140.950 992.250 140.365 C 1001.376 138.721, 1006 133.352, 1006 124.400 C 1006 114.751, 999.065 110.569, 993.678 116.971 M 276.117 116.631 C 272.779 118.969, 271.018 123.954, 270.316 133.052 L 269.704 141 272.951 141 C 283.164 141, 290.336 130.607, 287.031 120.595 C 285.214 115.087, 280.674 113.438, 276.117 116.631 M 649.342 116.473 C 646.315 118.593, 644.058 125.016, 643.335 133.566 L 642.707 141 645.952 141 C 655.758 141, 662.340 131.876, 660.005 121.522 C 658.622 115.389, 654.008 113.205, 649.342 116.473 M 836.540 122.552 C 832.926 126.451, 831.493 133.915, 831.558 148.500 C 831.642 167.433, 834.491 175, 841.534 175 C 848.895 175, 851.502 167.802, 851.495 147.500 C 851.492 138.827, 850.990 131.839, 850.176 129.135 C 847.597 120.572, 841.225 117.496, 836.540 122.552 M 357.768 160.059 C 346.146 166.195, 350.492 185.289, 362.288 179.915 C 366.150 178.155, 368.276 173.387, 368.793 165.322 L 369.263 158 365.382 158.044 C 363.247 158.069, 359.821 158.975, 357.768 160.059 M 838.128 251.107 C 822.579 255.781, 819.796 280.207, 833.960 287.697 C 846.553 294.356, 861 286.913, 861 273.766 L 861 269 852.500 269 L 844 269 844 272 C 844 274.889, 844.167 275, 848.500 275 C 851.917 275, 853 275.377, 853 276.566 C 853 284.674, 839.349 286.041, 834.363 278.432 C 830.477 272.501, 833.002 260.687, 838.712 258.085 C 843.397 255.951, 850.950 257.822, 852.347 261.463 C 853.031 263.244, 860 263.646, 860 261.904 C 860 254.988, 846.836 248.489, 838.128 251.107 M 250 270.500 L 250 290 253.500 290 L 257 290 257.211 280.250 C 257.327 274.887, 257.389 269.038, 257.347 267.250 C 257.306 265.462, 257.548 264.011, 257.886 264.024 C 258.224 264.038, 260.776 269.775, 263.557 276.774 C 268.397 288.954, 268.738 289.500, 271.491 289.500 C 274.230 289.500, 274.597 288.930, 279.188 277.545 C 281.840 270.970, 284.345 265.258, 284.755 264.851 C 285.165 264.443, 285.577 269.823, 285.671 276.805 L 285.841 289.500 289.421 289.810 L 293 290.121 293 270.560 L 293 251 288.161 251 C 282.648 251, 283.603 249.711, 276.937 266.150 C 274.628 271.843, 272.404 276.871, 271.995 277.325 C 271.379 278.008, 265.232 264.722, 261.088 253.750 C 260.145 251.253, 259.588 251, 255.025 251 L 250 251 250 270.500 M 347.633 251.785 C 346.684 253.321, 333 288.215, 333 289.099 C 333 289.595, 334.764 290, 336.920 290 C 340.735 290, 340.883 289.867, 342.500 285 L 344.161 280 351.882 280 L 359.603 280 361.716 285 C 363.692 289.678, 364.059 290, 367.414 290 C 369.386 290, 371.009 289.663, 371.021 289.250 C 371.032 288.837, 367.795 280.063, 363.828 269.750 L 356.614 251 352.366 251 C 350.030 251, 347.900 251.353, 347.633 251.785 M 412 270.560 L 412 290.121 415.750 289.810 L 419.500 289.500 419.794 282.250 L 420.088 275 423.474 275 C 426.653 275, 427.113 275.458, 431 282.500 C 435.062 289.859, 435.214 290, 439.070 290 C 443.953 290, 443.946 289.581, 438.920 281.369 L 434.840 274.703 437.326 272.601 C 442.114 268.554, 443.362 262.535, 440.544 257.085 C 438.181 252.516, 433.585 251, 422.099 251 L 412 251 412 270.560 M 484 270.500 L 484 290.121 487.750 289.810 L 491.500 289.500 491.794 282.836 C 492.044 277.159, 492.429 275.949, 494.393 274.662 C 496.645 273.187, 496.842 273.348, 502.810 281.556 C 508.849 289.860, 508.970 289.957, 512.966 289.730 C 517.934 289.447, 517.980 289.584, 508.922 277.534 L 501.755 267.999 509.472 259.499 L 517.188 251 512.344 251.060 C 507.572 251.119, 507.388 251.242, 500 259.379 L 492.500 267.639 492 259.569 L 491.500 251.500 487.750 251.190 L 484 250.879 484 270.500 M 557.228 270.250 L 557.500 289.500 571 289.500 L 584.500 289.500 584.813 286.250 L 585.127 283 575.063 283 L 565 283 565 278 L 565 273 574 273 L 583 273 583 270 L 583 267 574 267 L 565 267 565 262 L 565 257 575 257 L 585 257 585 254 L 585 251 570.978 251 L 556.957 251 557.228 270.250 M 624 253.952 C 624 256.875, 624.062 256.908, 630.250 257.202 L 636.500 257.500 636.775 273.750 L 637.050 290 640.500 290 L 643.950 290 644.225 273.750 L 644.500 257.500 650.750 257.202 C 656.938 256.908, 657 256.875, 657 253.952 L 657 251 640.500 251 L 624 251 624 253.952 M 697.445 252.284 C 697.174 252.990, 697.075 261.652, 697.226 271.534 L 697.500 289.500 701 289.500 L 704.500 289.500 704.772 270.250 L 705.043 251 701.490 251 C 699.521 251, 697.718 251.572, 697.445 252.284 M 748.228 270.250 L 748.500 289.500 752 289.500 L 755.500 289.500 756 276.500 L 756.500 263.500 765.586 276.500 C 774.178 288.793, 774.872 289.517, 778.336 289.810 L 782 290.121 782 270.560 L 782 251 778.500 251 L 775 251 775 263.500 C 775 270.375, 774.654 276, 774.231 276 C 773.808 276, 769.509 270.375, 764.678 263.500 C 755.947 251.075, 755.871 251, 751.926 251 L 747.957 251 748.228 270.250 M 420 263 L 420 269 425.345 269 C 431.389 269, 434 267.108, 434 262.728 C 434 259.121, 430.585 257, 424.777 257 L 420 257 420 263 M 351.512 260.981 C 350.926 261.929, 347 272.959, 347 273.657 C 347 273.845, 349.250 274, 352 274 C 357.760 274, 357.647 274.303, 354.908 266.194 C 352.722 259.720, 352.501 259.381, 351.512 260.981 M 95.775 268.558 C 95.469 268.865, 95.446 269.990, 95.725 271.058 C 96.220 272.950, 97.610 273, 150.117 273 L 204 273 204 270.500 L 204 268 150.167 268 C 120.558 268, 96.082 268.251, 95.775 268.558 M 910.180 270.250 L 910.500 272.500 968.250 272.758 L 1026 273.016 1026 270.508 L 1026 268 967.930 268 L 909.861 268 910.180 270.250" stroke="none" fill="black" fill-rule="evenodd"/>
</svg>